<svg xmlns="http://www.w3.org/2000/svg" width="48" height="48"><path data-name="Фигура 17" d="M20.01 3.2A16.8 16.8 0 1 0 36.8 20 16.791 16.791 0 0 0 20.01 3.2zm0 1.6a15.182 15.182 0 0 1 12.41 6.456l-2 2a3.159 3.159 0 0 0-1.61-.456 3.2 3.2 0 0 0-3.2 3.2 3.163 3.163 0 0 0 .45 1.615l-5.24 5.238a3.083 3.083 0 0 0-3.22 0l-3.64-3.638A3.187 3.187 0 1 0 8.13 16.8H5.16a15.219 15.219 0 0 1 14.85-12zM30.41 16a1.6 1.6 0 1 1-1.6-1.6 1.6 1.6 0 0 1 1.6 1.6zm-9.6 9.6a1.6 1.6 0 1 1-1.6-1.6 1.6 1.6 0 0 1 1.6 1.6zm-8-8a1.6 1.6 0 1 1-1.6-1.6 1.6 1.6 0 0 1 1.6 1.6zm14.58 15.69A15.2 15.2 0 0 1 4.81 20.02a14.618 14.618 0 0 1 .09-1.62h3.23a3.161 3.161 0 0 0 4.7 1.946l3.63 3.638a3.2 3.2 0 1 0 5.5 0l5.23-5.238a3.175 3.175 0 0 0 4.36-4.361l1.75-1.744a15.191 15.191 0 0 1-5.91 20.65zM40 8a3.2 3.2 0 0 0 3.09-2.4H48V4h-4.91a3.2 3.2 0 0 0-6.29.8 3.173 3.173 0 0 0 .46 1.615l-1.41 1.406a20 20 0 1 0-4.99 28.964l2.41 2.414 1.13 1.131 6.44 6.44a4.193 4.193 0 0 0 5.93-5.931l-6.44-6.44-1.13-1.131-2.41-2.414a19.955 19.955 0 0 0 0-21.708l1.6-1.6A3.147 3.147 0 0 0 40 8zm0-4.8a1.6 1.6 0 1 1-1.6 1.6A1.6 1.6 0 0 1 40 3.2zm5.64 38.77a2.592 2.592 0 0 1-3.62 3.711c-.02-.014-.03-.028-.05-.042l-6.43-6.44 3.66-3.669zm-7.57-7.571l-3.67 3.669-2.21-2.214c.11-.087.22-.182.33-.271s.24-.195.36-.3c.17-.147.35-.3.52-.449.08-.08.17-.16.25-.239q.495-.462.96-.953c.08-.086.16-.169.24-.256.15-.17.3-.343.44-.518q.15-.177.3-.359c.09-.111.18-.216.27-.329zm-3.1-3.715c-.25.351-.51.7-.79 1.028-.08.1-.16.191-.24.286-.25.285-.5.561-.76.829-.11.117-.23.232-.35.346-.26.261-.54.514-.83.759-.09.079-.18.167-.28.247-.33.275-.68.535-1.03.787a18.433 18.433 0 1 1 4.28-4.281z" fill="#00fff6" fill-rule="evenodd"/></svg>