<svg xmlns="http://www.w3.org/2000/svg" width="52.38" height="52.376">
	<path data-name="Фигура 20" d="M51.36 21.354h-6.55a1.017 1.017 0 0 0-1.02 1.023v5.166a1.02 1.02 0 1 0 2.04 0V23.4h4.5v26.931h-4.5V35.216a1.02 1.02 0 1 0-2.04 0v15.115h-2.05V29.154a1.024 1.024 0 0 0-1.02-1.023h-6.55a1.018 1.018 0 0 0-1.02 1.023v21.177H31.1V36.315a1.024 1.024 0 0 0-1.02-1.023h-6.55a1.024 1.024 0 0 0-1.02 1.023v14.016h-2.05v-8.143a1.024 1.024 0 0 0-1.02-1.023h-6.55a1.024 1.024 0 0 0-1.02 1.023v8.146h-8.8a1.025 1.025 0 0 1-1.02-1.023V3.068a1.024 1.024 0 0 1 1.02-1.023h26.39v6.752a3.075 3.075 0 0 0 3.07 3.069h6.75v12.583a1.025 1.025 0 0 0 2.05 0V10.843a1.031 1.031 0 0 0-.3-.723L31.21.298a1.023 1.023 0 0 0-.73-.3H3.07A3.075 3.075 0 0 0 0 3.067v46.24a3.074 3.074 0 0 0 3.07 3.068h48.29a1.023 1.023 0 0 0 1.02-1.022V22.377a1.024 1.024 0 0 0-1.02-1.023zM31.51 3.488l6.33 6.328h-5.31a1.024 1.024 0 0 1-1.02-1.023V3.488zM18.42 50.327h-4.51v-7.119h4.51v7.123zm10.63 0h-4.5V37.339h4.5v12.992zm10.64 0h-4.5v-20.15h4.5v20.154zm5.84-19.865a1.014 1.014 0 0 0-1.44 0 1.021 1.021 0 0 0 0 1.446 1.014 1.014 0 0 0 1.44 0 1.021 1.021 0 0 0 0-1.442zM14.89 5.593a1.024 1.024 0 0 0-1.02 1.024v1.84a9.41 9.41 0 1 0 10.38 10.377h1.84a1.024 1.024 0 0 0 1.02-1.023A12.232 12.232 0 0 0 14.89 5.597zm0 19.581a7.363 7.363 0 0 1-1.02-14.655v7.291a1.024 1.024 0 0 0 1.02 1.024h7.3a7.378 7.378 0 0 1-7.3 6.344zm1.03-8.386v-9.1a10.185 10.185 0 0 1 9.09 9.1h-9.09zm10.17 13.309H6.55a1.023 1.023 0 0 0 0 2.046h19.54a1.023 1.023 0 0 0 0-2.042zM13.1 35.033H6.55a1.023 1.023 0 0 0 0 2.046h6.55a1.023 1.023 0 0 0 0-2.042zm5.84.3a1.014 1.014 0 0 0-1.44 0 1.021 1.021 0 0 0 0 1.446 1.02 1.02 0 0 0 1.44-1.442z" fill="#00fff6" fill-rule="evenodd"/>
</svg>