<svg xmlns="http://www.w3.org/2000/svg" width="56.32" height="56.187">
	<path data-name="Фигура 24" d="M6.08 3.146A2.417 2.417 0 1 0 8.5 5.562a2.424 2.424 0 0 0-2.42-2.416zm0 3.186a.77.77 0 1 1 .77-.77.767.767 0 0 1-.77.77zm6.16-3.186a2.417 2.417 0 1 0 2.42 2.416 2.417 2.417 0 0 0-2.42-2.416zm0 3.186a.77.77 0 1 1 .77-.77.767.767 0 0 1-.77.77zm6.16-3.186a2.417 2.417 0 1 0 2.41 2.416 2.417 2.417 0 0 0-2.41-2.416zm0 3.186a.77.77 0 1 1 .77-.77.767.767 0 0 1-.77.77zm37.03 9.9a.826.826 0 0 0 .83-.824l.06-11.8a3.632 3.632 0 0 0-3.63-3.624H3.63A3.632 3.632 0 0 0 0 3.608v39.848a3.633 3.633 0 0 0 3.08 3.582 3.541 3.541 0 0 0 .55.042h16.04v2.954h-2.49a3.013 3.013 0 0 0-3.01 3.008v1.783a1.37 1.37 0 0 0 1.37 1.373h3.93a.824.824 0 1 0 0-1.647h-3.65v-1.5a1.362 1.362 0 0 1 1.36-1.361h21.9a1.362 1.362 0 0 1 1.36 1.361v1.5H24.59a.824.824 0 1 0 0 1.647h16.13a1.377 1.377 0 0 0 1.37-1.373v-1.779a3.013 3.013 0 0 0-3.01-3.008h-2.49v-2.954h16.04a3.541 3.541 0 0 0 .55-.042 3.633 3.633 0 0 0 3.08-3.582V20.513a.825.825 0 0 0-1.65 0v18.173H28.84v-27.5h25.77v4.22a.824.824 0 0 0 .82.825zM1.71 11.188h25.48v27.437H1.71v-27.44zm33.23 38.848H21.31v-2.954h13.63v2.954zm19.67-9.7v3.124a1.98 1.98 0 0 1-1.78 1.967 1.784 1.784 0 0 1-.2.01h-49a1.784 1.784 0 0 1-.2-.01 1.98 1.98 0 0 1-1.78-1.967v-3.124h52.96zM28.02 9.543H1.71V3.612a1.982 1.982 0 0 1 1.98-1.977h48.94a1.982 1.982 0 0 1 1.98 1.977v5.931H28.02zM5.16 14.469h4.18a.824.824 0 0 0 0-1.647H5.16a.824.824 0 0 0 0 1.647zm7.03 0h1.98a.824.824 0 1 0 0-1.647h-1.98a.824.824 0 0 0 0 1.647zm-.77 1.26H8.68a.824.824 0 1 0 0 1.647h2.74a.826.826 0 1 0 0-1.651zm12.97 3.011h-2.75a.824.824 0 0 0 0 1.647h2.75a.824.824 0 1 0 0-1.647zm-11.26-2.187a.823.823 0 0 0 .82.823h6.6a.824.824 0 0 0 0-1.647h-6.6a.824.824 0 0 0-.82.824zm-2.64 3.011a.824.824 0 0 0 .82.823h1.43a.824.824 0 1 0 0-1.647h-1.43a.824.824 0 0 0-.82.824zm8.63.823a.824.824 0 0 0 0-1.647h-3.96a.824.824 0 0 0 0 1.647h3.96zm-8.96 9.851a.824.824 0 0 0-.82-.824H5.16a.824.824 0 0 0 0 1.647h4.18a.824.824 0 0 0 .82-.823zm2.03-.824a.824.824 0 0 0 0 1.647h1.98a.824.824 0 1 0 0-1.647h-1.98zm.06 3.731a.826.826 0 0 0-.83-.824H8.68a.824.824 0 1 0 0 1.648h2.74a.826.826 0 0 0 .83-.824zm.49 2.187h-1.43a.824.824 0 0 0 0 1.647h1.43a.824.824 0 1 0 0-1.647zm11.65 0h-2.75a.824.824 0 0 0 0 1.647h2.75a.824.824 0 1 0 0-1.647zm-3.02-2.187a.824.824 0 0 0-.82-.824h-6.6a.824.824 0 0 0 0 1.648h6.6a.824.824 0 0 0 .82-.824zm-2.25 2.187h-3.96a.824.824 0 0 0 0 1.647h3.96a.824.824 0 0 0 0-1.647zM5.16 24.161h2.31a.824.824 0 0 0 0-1.647H5.16a.824.824 0 0 0 0 1.647zm13.9-.824a.823.823 0 0 0-.82-.823H9.78a.824.824 0 1 0 0 1.647h8.46a.824.824 0 0 0 .82-.824zm-1.54 2.907a.824.824 0 0 0-.82-.823H8.68a.824.824 0 1 0 0 1.647h8.02a.824.824 0 0 0 .82-.824zm1.49.824h1.54a.824.824 0 0 0 0-1.647h-1.54a.824.824 0 1 0 0 1.647zm18.72 4.751h-5.27a.823.823 0 1 0 0 1.646h5.27a.823.823 0 1 0 0-1.646zm13.41 0H40.7a.823.823 0 1 0 0 1.646h10.44a.823.823 0 0 0 0-1.646zm-13.41 3.184h-5.27a.824.824 0 1 0 0 1.647h5.27a.824.824 0 1 0 0-1.647zm13.41 0H40.7a.824.824 0 1 0 0 1.647h10.44a.824.824 0 0 0 0-1.647zm.85-20.052a2.135 2.135 0 0 0-2.13-2.129H33.74a2.128 2.128 0 0 0-2.13 2.129v13.103a2.127 2.127 0 0 0 2.13 2.128h16.12a2.134 2.134 0 0 0 2.13-2.128v-13.1zm-1.65 13.1a.484.484 0 0 1-.48.481H33.74a.477.477 0 0 1-.48-.481v-1.61l6.03-6.028 4.17 4.691a.823.823 0 1 0 1.23-1.093l-.38-.425 1.87-1.861 4.16 4.688v1.638zm0-4.119l-3.17-3.572a1.307 1.307 0 0 0-1.9-.057l-2.05 2.048-2.94-3.3a1.3 1.3 0 0 0-.93-.438 1.339 1.339 0 0 0-.97.381l-5.12 5.123v-9.166a.478.478 0 0 1 .48-.482h16.12a.478.478 0 0 1 .48.482v8.985z" fill="#00fff6" fill-rule="evenodd"/>
</svg>