<svg xmlns="http://www.w3.org/2000/svg" width="61.438" height="52.063"><path data-name="Фигура 21" d="M49.944 5.366L49.298.76a.876.876 0 0 0-1-.745l-5.076.778a.876.876 0 0 0 .265 1.731l2.958-.453A71.9 71.9 0 0 1 33.78 14.462a51.869 51.869 0 0 1-12 6.8c-6.953 2.74-11.7 2.56-11.747 2.558a.876.876 0 0 0-.084 1.75c.029 0 .148.006.353.006a34.391 34.391 0 0 0 12.017-2.638 53.474 53.474 0 0 0 12.448-7.022 73.64 73.64 0 0 0 13.1-12.8l.35 2.5a.875.875 0 0 0 .866.754.856.856 0 0 0 .123-.008.876.876 0 0 0 .738-.996zm9.875 41.872h-7.078a10.69 10.69 0 0 0 1.638-1.341 10.549 10.549 0 0 0-2.337-16.691v-3.535a.876.876 0 1 0-1.752 0v2.757a10.535 10.535 0 0 0-7.341.216V17.89a.206.206 0 0 1 .206-.206h6.93a.206.206 0 0 1 .2.206v2.173a.876.876 0 1 0 1.752 0V17.89a1.959 1.959 0 0 0-1.948-1.952h-6.93a1.959 1.959 0 0 0-1.957 1.957v11.667a10.567 10.567 0 0 0-.114 17.682h-5.531V25.838a1.959 1.959 0 0 0-1.957-1.957h-6.93a1.959 1.959 0 0 0-1.957 1.957v21.4h-5.644v-14.2a1.96 1.96 0 0 0-1.958-1.957h-6.93a1.959 1.959 0 0 0-1.957 1.957v14.2H4.619V2.205A1.618 1.618 0 0 0 3.002.589H1.619A1.618 1.618 0 0 0 .003 2.205v6.217a.876.876 0 0 0 1.751 0V2.338h1.115v45.035a1.618 1.618 0 0 0 1.616 1.616h55.206v1.318H1.751V13.955a.876.876 0 0 0-1.752 0v36.489a1.618 1.618 0 0 0 1.616 1.616h58.204a1.618 1.618 0 0 0 1.616-1.616v-1.589a1.618 1.618 0 0 0-1.616-1.617zm-42.506 0H9.972v-14.2a.205.205 0 0 1 .2-.205h6.93a.205.205 0 0 1 .206.205v14.2zm9.147 0v-21.4a.206.206 0 0 1 .206-.206h6.93a.205.205 0 0 1 .205.206v21.4H26.46zm24.322-.9a8.853 8.853 0 0 1-2.833.833l-.05.006-.2.021c-.1.009-.2.017-.308.022h-.1c-.126 0-.252.009-.379.009s-.255 0-.381-.009l-.12-.006-.285-.021a8.965 8.965 0 0 1-.236-.025l-.168-.021c-.08-.011-.16-.022-.239-.035l-.031-.006a8.789 8.789 0 0 1-2.942-1.055l-.014-.007a8.842 8.842 0 0 1-1.812-1.395A8.807 8.807 0 0 1 42.79 30.64l.064-.033a8.848 8.848 0 0 1 7.338-.356l.054.022c.11.044.218.092.325.141.043.019.086.04.128.06a8.809 8.809 0 0 1 .113 15.846zM47.32 37.58v-3.119a8.594 8.594 0 0 1 1.844.568.852.852 0 0 0 .676-.876c0-.752-1.475-1.075-2.52-1.106v-.409a.444.444 0 0 0-.461-.353.406.406 0 0 0-.446.353v.446c-1.46.154-2.92.922-2.92 2.858 0 1.967 1.537 2.52 2.92 3.011v3.611c-1.567-.123-1.982-1.2-2.489-1.2a.894.894 0 0 0-.707.876c0 .752 1.291 1.782 3.2 1.813v.476a.405.405 0 0 0 .446.353.444.444 0 0 0 .461-.353v-.522a2.978 2.978 0 0 0 2.8-3.166c-.005-2.088-1.464-2.763-2.8-3.255zm-.815-.292c-.814-.307-1.475-.63-1.475-1.506a1.378 1.378 0 0 1 1.475-1.291v2.8zm.723 5.239v-3.242a1.8 1.8 0 0 1 1.352 1.721 1.461 1.461 0 0 1-1.348 1.532z" fill="#00fff6" fill-rule="evenodd"/></svg>