<svg xmlns="http://www.w3.org/2000/svg" width="56.22" height="56.218"><path data-name="Фигура 19" d="M56.14 11.187a1.43 1.43 0 0 0-1.17-.959l-4.15-.541a3.139 3.139 0 0 0-.54-3.7 3.094 3.094 0 0 0-2.21-.917 3.109 3.109 0 0 0-1.39.325l-.54-4.145A1.437 1.437 0 0 0 43.7.422l-5.91 5.907a1.455 1.455 0 0 0-.4 1.24l.96 5.947-.27.274a23.691 23.691 0 0 0-28.16-.5.825.825 0 0 0 .96 1.342 22 22 0 0 1 26.01.341l-3.34 3.357a17.38 17.38 0 1 0 4.41 4.444l3.35-3.362a22.008 22.008 0 1 1-34.05-1.535.829.829 0 0 0-.07-1.165.82.82 0 0 0-1.16.064 23.663 23.663 0 1 0 36.47 1.449l.21-.211 5.94.955a1.36 1.36 0 0 0 .22.018 1.445 1.445 0 0 0 1.02-.419l1.27-1.268a.826.826 0 0 0-1.17-1.166l-1.19 1.19-4.64-.745 5.4-5.394 4.76.621-.72.715a.826.826 0 0 0 1.17 1.166l1.03-1.026a1.434 1.434 0 0 0 .34-1.474zM44.56 1.895l.62 4.759-5.4 5.395-.74-4.636zm-5.21 30.663a15.7 15.7 0 1 1-6.99-13.041l-3.42 3.434a10.977 10.977 0 1 0 4.4 4.457l3.44-3.445a15.628 15.628 0 0 1 2.57 8.593zm-17.22 1.651a3.113 3.113 0 0 0 2.22.917 3.089 3.089 0 0 0 2.21-.92l1.17-1.172a4.094 4.094 0 1 1-4.29-4.567l-1.31 1.317a3.132 3.132 0 0 0 0 4.425zm-4.21-1.651a5.745 5.745 0 0 0 11.49 0 5.689 5.689 0 0 0-.11-1.1l2.81-2.82a9.186 9.186 0 0 1 .87 3.919 9.326 9.326 0 1 1-5.26-8.383l-2.78 2.783a5.675 5.675 0 0 0-1.28-.146 5.752 5.752 0 0 0-5.74 5.745zm7.48.484a1.485 1.485 0 0 1-1.05.436 1.482 1.482 0 0 1-1.05-2.53l23.72-23.8a1.473 1.473 0 0 1 1.05-.437 1.483 1.483 0 0 1 1.05 2.531z" fill="#00fff6" fill-rule="evenodd"/></svg>