<svg xmlns="http://www.w3.org/2000/svg" width="52.78" height="52.813"><path data-name="Фигура 18" d="M13.59 11.275A5.248 5.248 0 0 0 9.81 9.68h-.27a5.217 5.217 0 0 0-3.77 1.595 4.8 4.8 0 0 0-1.37 3.589l.1 2.369A5.065 5.065 0 0 0 9.64 22h.07a5.065 5.065 0 0 0 5.14-4.767l.1-2.369a4.835 4.835 0 0 0-1.36-3.589zm-.5 5.885a3.3 3.3 0 0 1-3.38 3.08h-.07a3.3 3.3 0 0 1-3.38-3.08l-.03-.719a7.926 7.926 0 0 0 4.6-1.727 3.934 3.934 0 0 0 2.29 1.61zM11.98 13a.877.877 0 0 0-1.63-.327c-.01.018-1.11 1.746-4.19 2.01a3.12 3.12 0 0 1 .87-2.187 3.5 3.5 0 0 1 2.51-1.056h.27a3.464 3.464 0 0 1 2.5 1.056 3.064 3.064 0 0 1 .86 1.977A2.091 2.091 0 0 1 11.98 13zM47.9 32.395a5.231 5.231 0 0 0-3.78-1.595h-.27a5.234 5.234 0 0 0-3.77 1.595 4.844 4.844 0 0 0-1.37 3.589l.11 2.369a5.049 5.049 0 0 0 5.13 4.767h.07a5.058 5.058 0 0 0 5.14-4.767l.11-2.369a4.844 4.844 0 0 0-1.37-3.589zm-.39 3.518l-.11 2.367a3.3 3.3 0 0 1-3.38 3.08h-.07a3.3 3.3 0 0 1-3.38-3.08l-.1-2.372a3.066 3.066 0 0 1 .88-2.292 3.48 3.48 0 0 1 2.5-1.056h.27a3.486 3.486 0 0 1 2.51 1.056 3.155 3.155 0 0 1 .88 2.297zM27.18 12.798a2.44 2.44 0 0 0-3.39 0l-9.82 9.824a.9.9 0 0 1-.63.258H4.4a4.4 4.4 0 0 0-4.4 4.4V39.6a2.639 2.639 0 0 0 2.64 2.64 2.694 2.694 0 0 0 .88-.15v1.03a.877.877 0 0 0 .88.88h10.55a.877.877 0 0 0 .88-.88V28.851a.9.9 0 0 1 .24-.6l11.16-12.009a2.437 2.437 0 0 0-.05-3.444zm-1.2 2.213c-.01 0-.01.007-.01.01L14.78 27.054a2.617 2.617 0 0 0-.71 1.8v13.389H5.28v-13.2a.88.88 0 0 0-1.76 0v10.56a.88.88 0 1 1-1.76 0v-12.32a2.639 2.639 0 0 1 2.64-2.64h8.94a2.619 2.619 0 0 0 1.87-.774l9.82-9.824a.7.7 0 0 1 .96 0 .69.69 0 0 1-.01.966zM9.67 25.519a.884.884 0 0 0-.88.88v10.56a.88.88 0 1 0 1.76 0v-10.56a.877.877 0 0 0-.88-.88zm18.87 6.875a5.234 5.234 0 0 0-3.77-1.595h-.27a5.239 5.239 0 0 0-3.78 1.595 4.835 4.835 0 0 0-1.36 3.589l.1 2.369a5.058 5.058 0 0 0 5.14 4.767h.06a5.052 5.052 0 0 0 5.14-4.767l.11-2.369a4.844 4.844 0 0 0-1.37-3.588zm-.39 3.518l-.1 2.367a3.313 3.313 0 0 1-3.39 3.08h-.06a3.3 3.3 0 0 1-3.38-3.08l-.11-2.372a3.145 3.145 0 0 1 .88-2.292 3.486 3.486 0 0 1 2.51-1.056h.27a3.48 3.48 0 0 1 2.5 1.056 3.076 3.076 0 0 1 .88 2.298zm1.03 8.087h-9.09a4.267 4.267 0 0 0-4.26 4.253v3.667a.88.88 0 1 0 1.76 0v-3.667a2.5 2.5 0 0 1 2.5-2.493h9.09a2.5 2.5 0 0 1 2.49 2.493v3.667a.88.88 0 0 0 1.76 0v-3.667A4.258 4.258 0 0 0 29.18 44zm19.35 0h-9.09a4.252 4.252 0 0 0-4.25 4.253v3.667a.88.88 0 0 0 1.76 0v-3.667a2.5 2.5 0 0 1 2.49-2.493h9.09a2.5 2.5 0 0 1 2.5 2.493v3.667a.88.88 0 1 0 1.76 0v-3.667A4.267 4.267 0 0 0 48.53 44zm1.66-44H19.31a2.622 2.622 0 0 0-2.6 2.64v13.2a.88.88 0 0 0 1.76 0V5.279h32.56v21.12a.867.867 0 0 1-.84.88H20.17a.88.88 0 0 0 0 1.76h30.02a2.622 2.622 0 0 0 2.6-2.64V2.639A2.622 2.622 0 0 0 50.19 0zm.84 3.52H18.47v-.88a.866.866 0 0 1 .84-.88h30.88a.866.866 0 0 1 .84.88v.88zm-2.64 7.7a.877.877 0 0 0-.88.88v12.54a.88.88 0 1 0 1.76 0v-12.54a.884.884 0 0 0-.88-.88zm-3.52 5.5a.877.877 0 0 0-.88.88v7.04a.88.88 0 1 0 1.76 0v-7.04a.884.884 0 0 0-.88-.88zm-3.52-1.76a.877.877 0 0 0-.88.88v8.8a.88.88 0 1 0 1.76 0v-8.8a.884.884 0 0 0-.88-.879zm-3.52 5.28a.877.877 0 0 0-.88.88v3.52a.88.88 0 0 0 1.76 0v-3.52a.884.884 0 0 0-.88-.879zM48.88 7.187a.89.89 0 0 0-1.23.243l-3 4.506-2.77-2.081a.888.888 0 0 0-1.24.17.754.754 0 0 0-.08.141l-3.43 6.854-3.35 2.515a.881.881 0 0 0 1.06 1.408l3.52-2.64a.859.859 0 0 0 .26-.311l3.05-6.1 2.67 2.007a.877.877 0 0 0 1.23-.176l.03-.04 3.52-5.28a.882.882 0 0 0-.24-1.215zm-17.21-.148H21.11a.88.88 0 0 0 0 1.76h10.56a.88.88 0 0 0 0-1.759zm5.28 0h-1.76a.88.88 0 0 0 0 1.76h1.76a.88.88 0 0 0 0-1.759z" fill="#00fff6" fill-rule="evenodd"/></svg>