<svg xmlns="http://www.w3.org/2000/svg" width="61.47" height="61.469">
	<path data-name="Фигура 23" d="M49.67 10.225a1.537 1.537 0 1 0 1.53 1.537 1.539 1.539 0 0 0-1.53-1.537zM53.98.279a1.026 1.026 0 0 0-1.45 0l-8.2 8.2a1.034 1.034 0 0 0-.3.725v7.172a1.027 1.027 0 0 0 1.03 1.025h7.17a1.014 1.014 0 0 0 .72-.3l8.2-8.2a1.025 1.025 0 0 0 0-1.449zM51.8 15.348h-5.72V9.625l7.17-7.173 5.72 5.724zM1.01 34.817h3.07v.132a3.975 3.975 0 0 0 3.08 3.856v9.333a1.025 1.025 0 0 0 1.02 1.025h6.15a1.025 1.025 0 0 0 1.02-1.025v-4.1h1.03a3.081 3.081 0 0 0 3.07-3.066v-2.168a3.945 3.945 0 0 0 2.82-2.522l17.25 7.668a1.02 1.02 0 0 0 1.35-.521 1 1 0 0 0 .09-.416V18.425a1.025 1.025 0 0 0-1.44-.936l-17.25 7.668a3.949 3.949 0 0 0-3.71-2.633H8.05a3.979 3.979 0 0 0-3.97 3.968v.131H1.01a1.018 1.018 0 0 0-1.02 1.024v6.148a1.018 1.018 0 0 0 1.02 1.02zm33.8-13l4.1-1.82v21.438l-4.1-1.82v-17.8zm-12.29 5.466l10.24-4.555v15.98l-10.24-4.56v-6.865zM13.3 43.011v4.1H9.21v-8.2h4.09v4.1zm4.1-2.041a1.015 1.015 0 0 1-1.02 1.017h-1.03v-3.074h2.05v2.057zM6.13 33.789v-7.3a1.92 1.92 0 0 1 1.92-1.918h10.51a1.918 1.918 0 0 1 1.91 1.918v8.46a1.918 1.918 0 0 1-1.91 1.917H8.05a1.92 1.92 0 0 1-1.92-1.917v-1.157zm-4.1-5.123h2.05v4.1H2.03v-4.1zm48.98 11.6a1.026 1.026 0 0 0-1.45 0l-7.25 7.247a1.025 1.025 0 0 0 0 1.449l10.15 10.144a1.014 1.014 0 0 0 1.44 0l7.25-7.245a1.025 1.025 0 0 0 0-1.449zm6.73 9.632l-5.78-.443-.44-5.783zm-4.56 7.032l-8.69-8.694 4.94-4.945.56 7.2a1.01 1.01 0 0 0 .94.943l7.19.553zM27.64 19.443a7.155 7.155 0 0 0 5.74-11.46l6.26-6.26L38.19.275l-6.26 6.257a7.174 7.174 0 1 0-4.29 12.913zm0-12.3a5.124 5.124 0 1 1-5.12 5.123 5.12 5.12 0 0 1 5.12-5.117zm16.39 28.691h5.12v1.024a1.026 1.026 0 0 0 1.03 1.025h8.19a1.026 1.026 0 0 0 1.03-1.025v-5.1a6.9 6.9 0 0 1-1.79-9.582 4.1 4.1 0 1 0-6.67 4.753 4.045 4.045 0 0 0 .96.963 4.178 4.178 0 0 0-1.72 1.17 3.989 3.989 0 0 0-1.28-.989 3.073 3.073 0 1 0-4.29-.7 3.191 3.191 0 0 0 .7.7 4.085 4.085 0 0 0-2.3 3.665v3.074a1.025 1.025 0 0 0 1.02 1.028zm10.25-13.321a2.05 2.05 0 1 1-2.05 2.05 2.043 2.043 0 0 1 2.05-2.044zm-3.08 12.3v-3.054a2.073 2.073 0 0 1 2.07-2.069h2.01a2.073 2.073 0 0 1 2.07 2.069v4.079H51.2v-1.023zm-4.09-10.246a1.025 1.025 0 1 1-1.03 1.024 1.024 1.024 0 0 1 1.03-1.022zm-2.05 7.172a2.045 2.045 0 1 1 4.09 0v2.05h-4.09v-2.05zM28.67 41.986h-4.1a1.014 1.014 0 0 0-.72.3l-6.15 6.148a1.025 1.025 0 0 0 0 1.449l11.27 11.271a1.026 1.026 0 0 0 1.45 0l8.19-8.2a1.025 1.025 0 0 0 0-1.449l-9.22-9.222a1.014 1.014 0 0 0-.72-.295zm1.02 16.995l-9.82-9.822 5.12-5.124h3.25l8.2 8.2zm-5.84-8.5l4.09-4.1 1.45 1.449-4.1 4.1zm3.07 3.074l4.1-4.1 1.44 1.448-4.09 4.1z" fill="#00fff6" fill-rule="evenodd"/></svg>