<svg xmlns="http://www.w3.org/2000/svg" width="52.5" height="45.875"><path data-name="TOP LÍNE" d="M5.438 17.062H8.39V3.022h5.448V.262H-.01v2.76h5.448v14.04zm11.424-2.136a9.306 9.306 0 0 0 12.528-.048 8.336 8.336 0 0 0 2.5-6.216 8.347 8.347 0 0 0-2.5-6.264 8.626 8.626 0 0 0-6.264-2.4 8.453 8.453 0 0 0-8.736 8.664 8.338 8.338 0 0 0 2.472 6.264zm2.232-10.512a5.707 5.707 0 0 1 8.04 0 5.848 5.848 0 0 1 1.632 4.248 6.025 6.025 0 0 1-1.536 4.224 5.244 5.244 0 0 1-4.1 1.68 5.319 5.319 0 0 1-4.008-1.68 6.419 6.419 0 0 1-.024-8.472zm21.335 6.648a6.154 6.154 0 0 0 4.512-1.584 5.18 5.18 0 0 0 1.632-3.864 5.9 5.9 0 0 0-.336-2.028 5.046 5.046 0 0 0-1.056-1.7A4.8 4.8 0 0 0 43.15.662a9.617 9.617 0 0 0-3.084-.444q-1.248 0-2.5.024-1.224.024-2.28.024v16.796h2.964V10.99q.72.072 2.184.072zm3.024-5.472a2.452 2.452 0 0 1-.852 2.016 3.473 3.473 0 0 1-2.268.7q-.816 0-2.088-.12V3.022l2.112-.048q3.1 0 3.1 2.616zM12.59 43.102H5.03v-14.04H2.078v16.8H12.59v-2.76zm5.928-14.04h-2.952v16.8h2.952v-16.8zm-3.24-2.4l.768 1.656 5.4-1.944-1.032-2.376zm19.848 2.4V40.75l-9.24-11.688h-2.352v16.8h2.76v-11.64l9.24 11.64h2.352v-16.8h-2.76zm17.375 14.04h-7.008v-4.34h6.048v-2.76h-6.048v-4.18h6.768v-2.76h-9.72v16.8h9.96v-2.76z" fill="#fff" fill-rule="evenodd"/></svg>