<svg width="100" height="100" fill="none" xmlns="http://www.w3.org/2000/svg"><path d="M60.404 45.267c0 5.554-4.505 10.06-10.06 10.06-5.555 0-10.06-4.506-10.06-10.06 0-5.555 4.505-10.06 10.06-10.06 5.555 0 10.06 4.495 10.06 10.06zM30.264 67.99c1.336-5.861 6.574-10.238 12.842-10.238h14.476c6.267 0 11.505 4.377 12.842 10.238" stroke="#fff" stroke-width="4" stroke-miterlimit="10"/><path d="M52.958 76.693c-14.743 1.456-27.872-9.317-29.328-24.06-1.456-14.743 9.317-27.872 24.06-29.327 14.744-1.456 27.873 9.317 29.328 24.06 1.446 14.753-9.317 27.872-24.06 29.327zm43.08-32.476l-11.297-2.762a34.71 34.71 0 0 0-2.366-6.654l7.01-9.149c.653-.851.604-2.198-.119-3l-7.673-8.555c-.723-.801-2.05-1-2.98-.435l-9.912 6.02a35.7 35.7 0 0 0-6.357-3.03L60.83 5.167c-.148-1.07-1.128-1.98-2.208-2.04l-11.456-.624c-1.079-.06-2.158.743-2.415 1.792l-2.743 11.238a34.84 34.84 0 0 0-6.782 2.377l-9.1-6.98c-.861-.664-2.198-.605-3 .118L14.58 18.72c-.812.723-1 2.05-.445 2.98l5.95 9.793a35.384 35.384 0 0 0-3.03 6.287L5.501 39.316c-1.07.148-1.98 1.129-2.04 2.208L2.837 52.99c-.06 1.079.743 2.158 1.792 2.416l11.199 2.732A36.244 36.244 0 0 0 18.194 65l-7.06 9.208c-.663.862-.613 2.208.12 3.01l7.663 8.545c.723.812 2.05 1 2.98.445l9.862-5.99a35.435 35.435 0 0 0 6.565 3.139l1.515 11.475c.148 1.07 1.128 1.98 2.208 2.04l11.465.624c1.09.07 2.169-.743 2.416-1.792l2.743-11.248a34.672 34.672 0 0 0 6.723-2.357l9.258 7.1c.861.653 2.198.604 3-.12l8.555-7.673c.802-.723 1-2.05.435-2.97l-6.04-9.99a34.81 34.81 0 0 0 3.14-6.634l11.425-1.505c1.07-.139 1.98-1.129 2.04-2.208l.624-11.476c.06-1.07-.743-2.148-1.792-2.406z" stroke="#fff" stroke-width="4" stroke-miterlimit="10"/></svg>