<svg width="71" height="101" fill="none" xmlns="http://www.w3.org/2000/svg"><path d="M40.56 3.7l.918 1.777.007-.004-.926-1.773zM43.816 2l1.974.323a2 2 0 0 0-2.9-2.096L43.817 2zm-.353 2.16l1.972.334.002-.01-1.974-.324zM15.056 18.87a2 2 0 0 0-1.447 3.729l1.447-3.73zm8.431-1.677l.81-1.829a2 2 0 0 0-2.205.396l1.395 1.433zm22.243-1.86l1.986-.236a2 2 0 0 0-3.349-1.228l1.363 1.464zm11.154 11.396a2 2 0 1 0 .318-3.988l-.318 3.988zm-42.551 15.21a2 2 0 0 0 0-4v4zm0-12.233a2 2 0 0 0 0-4v4zm42.71-3.99a2 2 0 1 0 0 4v-4zm0 12.232a2 2 0 1 0 0 4v-4zM41.276 64.644a2 2 0 1 0 0 4v-4zm25.59 33.366a2 2 0 0 0 4 0h-4zM.5 98.01a2 2 0 1 0 4 0h-4zm29.463-31.367v2a2 2 0 0 0 2-2h-2zm2-7.641a2 2 0 1 0-4 0h4zm11.254 0a2 2 0 1 0-4 0h4zm-4 7.642a2 2 0 1 0 4 0h-4zm4.059.09a2 2 0 0 0-4 0h4zm-11.323 0a2 2 0 1 0-4 0h4zm5.918 5.83l1.74-.985a2 2 0 0 0-1.74-1.014v2zm-4.376 0v-2a2 2 0 0 0-1.742 1.018l1.742.983zm-2.178 3.862l-1.742-.983a2 2 0 0 0 0 1.965l1.742-.983zm6.554 3.86v2a2 2 0 0 0 1.74-1.014l-1.74-.986zm2.188-3.86l1.74.986a2 2 0 0 0 0-1.973l-1.74.987zM29.305 88.088l-1.761-.947a2 2 0 0 0-.199 1.344l1.96-.397zm.052 10.32a2 2 0 0 0 3.92-.796l-3.92.795zM40.094 79.34a2 2 0 0 0-3.524 1.892l3.524-1.892zm2.428 8.748l1.96.395a2 2 0 0 0-.198-1.342l-1.762.947zm-3.962 9.526a2 2 0 1 0 3.92.791l-3.92-.79zm2.3-21.46a2 2 0 0 0-2.524 3.103l2.524-3.103zm3.153 5.142l-1.262 1.552a2 2 0 0 0 3.15-.89l-1.888-.662zm6.881-13.57A2 2 0 1 0 47.12 66.4l3.774 1.325zM33.158 79.257a2 2 0 1 0-2.524-3.103l2.524 3.103zm-5.678 2.04l-1.886.663a2 2 0 0 0 3.148.888l-1.262-1.552zM24.363 66.4a2 2 0 1 0-3.773 1.327l3.773-1.327zm20.15-59.12h1.001v-4h-1v4zm1.001 0c5.379 0 9.529 4.056 9.529 8.693h4c0-7.125-6.23-12.692-13.529-12.692v4zm9.529 8.693v23.755h4V15.973h-4zm0 23.755c0 9.648-8.566 17.804-19.36 17.804v4c12.714 0 23.36-9.668 23.36-21.804h-4zm-19.36 17.804c-10.785 0-19.36-8.156-19.36-17.804h-4c0 12.137 10.656 21.804 23.36 21.804v-4zm-19.36-17.804V15.973h-4v23.755h4zm0-23.755c0-4.637 4.15-8.692 9.529-8.692v-4c-7.298 0-13.529 5.567-13.529 12.692h4zm9.529-8.692h8.192v-4h-8.192v4zm8.192 0c2.607 0 5.159-.627 7.434-1.804l-1.837-3.553a12.194 12.194 0 0 1-5.596 1.357v4zm7.44-1.808l3.258-1.7-1.85-3.546-3.258 1.7 1.85 3.546zm.36-3.796l-.354 2.16 3.947.646.354-2.16-3.948-.646zm-.352 2.15c-.338 1.998 1.345 3.454 3.022 3.454v-4c.237 0 .477.1.657.292.181.194.331.527.265.921l-3.944-.667zm-27.16 16.907a127.15 127.15 0 0 0-.72 1.866h.003c.002.002.004.002.007.003l.013.005.033.012.083.029c.063.02.143.046.24.071.19.052.445.11.758.154.626.09 1.48.126 2.51-.032 2.09-.32 4.75-1.42 7.623-4.215l-2.79-2.867c-2.337 2.275-4.254 2.946-5.44 3.129a4.615 4.615 0 0 1-1.34.025 2.352 2.352 0 0 1-.277-.055l-.029-.008.015.005.015.006.01.003.005.002.002.001c.002 0 .003.001-.72 1.866zm9.155-3.54a236.36 236.36 0 0 0-.806 1.83l.005.002.012.005.04.018.14.058c.117.049.285.117.499.199a33.327 33.327 0 0 0 7.806 1.918c4.755.557 11.03.117 15.91-4.427l-2.726-2.928c-3.637 3.388-8.482 3.878-12.72 3.382a29.322 29.322 0 0 1-6.836-1.68 16.58 16.58 0 0 1-.517-.208h.001s.001.001-.808 1.83zm22.243-1.861c-1.986.236-1.986.237-1.986.238v.003l.001.006a.935.935 0 0 0 .007.051l.017.111c.014.09.035.211.065.36.06.295.157.701.308 1.183.301.96.828 2.25 1.735 3.573 1.861 2.713 5.222 5.41 11.007 5.87l.318-3.987c-4.507-.359-6.803-2.363-8.026-4.146a9.502 9.502 0 0 1-1.217-2.507 7.922 7.922 0 0 1-.24-.971l-.004-.033c0-.002 0-.002 0 0V15.095c.001 0 .001.002-1.985.238zM14.333 37.938c-1.008 0-1.905-.858-1.905-1.98h-4c0 3.258 2.615 5.98 5.905 5.98v-4zm-1.905-1.98v-4.271h-4v4.27h4zm0-4.271c0-1.123.897-1.981 1.905-1.981v-4c-3.29 0-5.905 2.722-5.905 5.98h4zm44.615-1.972c1.008 0 1.905.859 1.905 1.981h4c0-3.258-2.616-5.98-5.905-5.98v4zm1.905 1.981v4.271h4v-4.27h-4zm0 4.271c0 1.122-.897 1.981-1.905 1.981v4c3.29 0 5.905-2.722 5.905-5.98h-4zM41.276 68.644h5.975v-4h-5.975v4zm5.975 0c10.88 0 19.615 8.456 19.615 18.594h4c0-12.527-10.711-22.594-23.615-22.594v4zm19.615 18.594V98.01h4V87.238h-4zM4.5 98.01V87.238h-4V98.01h4zm0-10.772c0-10.128 8.745-18.594 19.615-18.594v-4C11.221 64.644.5 74.72.5 87.238h4zm19.615-18.594h5.848v-4h-5.848v4zm3.848-9.642v7.642h4v-7.642h-4zm11.254 0v7.642h4v-7.642h-4zm.059 7.731c0 2.123-1.672 3.772-3.662 3.772v4c4.27 0 7.662-3.513 7.662-7.772h-4zm-3.662 3.772c-1.989 0-3.661-1.65-3.661-3.772h-4c0 4.26 3.39 7.772 7.661 7.772v-4zm2.257.06h-4.376v4h4.376v-4zm-6.118 1.017l-2.178 3.86 3.484 1.966 2.178-3.86-3.484-1.966zm-2.178 5.826l2.178 3.861 3.484-1.965-2.178-3.861-3.484 1.965zm3.92 4.878h4.376v-4h-4.376v4zm6.116-1.014l2.188-3.86-3.48-1.973-2.188 3.861 3.48 1.972zm2.188-5.833l-2.188-3.86-3.48 1.972 2.188 3.86 3.48-1.972zM31.733 79.34l-4.19 7.801 3.524 1.893 4.19-7.802-3.524-1.892zm-4.388 9.145l2.012 9.922 3.92-.795-2.011-9.922-3.92.795zm9.225-7.253l4.19 7.802 3.524-1.893-4.19-7.801-3.524 1.892zm3.991 6.46l-2.001 9.922 3.92.791 2.002-9.922-3.92-.79zm-2.225-8.435l4.415 3.591 2.524-3.103-4.415-3.59-2.524 3.102zM45.9 81.96l4.994-14.233L47.12 66.4l-4.994 14.233L45.9 81.96zm-15.266-5.805l-4.415 3.59 2.523 3.104 4.416-3.59-2.524-3.104zm-1.267 4.48L24.363 66.4l-3.773 1.327 5.004 14.233 3.773-1.327z" fill="#08C"/></svg>