<svg width="100" height="100" fill="none" xmlns="http://www.w3.org/2000/svg"><path d="M49.336 19.44a2 2 0 0 0-4 0h4zm-4 61.041a2 2 0 0 0 4 0h-4zm9.619-61.042a2 2 0 0 0-4 0h4zm-4 61.042a2 2 0 0 0 4 0h-4zm9.72-47.645a2 2 0 1 0 1.529-3.696l-1.53 3.696zm-13.38-3.921l-.207-1.99.207 1.99zm-6.881 3.265l1.417 1.411.007-.006-1.424-1.405zm-2.745 8.364l1.96-.4-1.96.4zm2.775 4.397l1.262-1.551-.003-.002-1.259 1.553zm8.795 4.588l-.703 1.873.004.001.699-1.874zm3.596 1.162l.556-1.921-.556 1.921zm8.945 6.31l-1.845.775.001.001 1.844-.776zM57.923 67.52l-1.05-1.702 1.05 1.702zm-6.39 2.244l-.337-1.972h-.001l.338 1.972zm-11.85-.14l-.356 1.968h.003l.353-1.968zm-3.146-2.736a2 2 0 1 0-1.02 3.868l1.02-3.867zm8.799-47.448v61.042h4V19.439h-4zm5.619 0v61.042h4V19.439h-4zM96 50c0 25.405-20.595 46-46 46v4c27.614 0 50-22.386 50-50h-4zM50 96C24.595 96 4 75.405 4 50H0c0 27.614 22.386 50 50 50v-4zM4 50C4 24.595 24.595 4 50 4V0C22.386 0 0 22.386 0 50h4zM50 4c25.405 0 46 20.595 46 46h4c0-27.614-22.386-50-50-50v4zm11.44 26.988l.763-1.848h-.001l-.003-.002a.327.327 0 0 1-.007-.003l-.022-.009a9 9 0 0 0-.334-.13c-.223-.083-.542-.2-.945-.335-.805-.27-1.95-.62-3.334-.943-2.749-.642-6.523-1.204-10.47-.793l.416 3.979c3.346-.35 6.644.125 9.144.71 1.24.29 2.264.602 2.971.84a23.316 23.316 0 0 1 1.05.38l.008.003c-.001 0-.002 0 .763-1.849zm-14.352-4.063c-3.7.387-6.336 2.066-8.098 3.85l2.848 2.81c1.223-1.24 3.035-2.406 5.665-2.681l-.415-3.979zm-8.091 3.844c-2.617 2.628-4.064 6.38-3.287 10.176l3.919-.802c-.465-2.274.371-4.713 2.202-6.552l-2.834-2.822zM35.71 40.944c.4 1.965 1.413 3.88 3.475 5.551l2.518-3.107c-1.323-1.073-1.854-2.163-2.074-3.244l-3.92.8zm3.472 5.55c2.737 2.224 6.773 3.94 9.354 4.908l1.405-3.746c-2.547-.954-6.044-2.485-8.235-4.266l-2.524 3.103zm9.358 4.909c1.25.467 2.508.853 3.739 1.21l1.111-3.843c-1.193-.345-2.34-.7-3.453-1.115l-1.397 3.748zm3.739 1.21c.949.274 2.547.74 4.108 1.6 1.571.864 2.9 2.018 3.548 3.563l3.689-1.549c-1.135-2.702-3.327-4.428-5.307-5.519-1.99-1.095-3.972-1.662-4.926-1.938l-1.112 3.842zm7.657 5.164c.856 2.033.44 3.77-.395 5.197-.876 1.498-2.162 2.531-2.667 2.843l2.099 3.405c.957-.59 2.756-2.066 4.02-4.227 1.307-2.232 2.088-5.303.63-8.77l-3.687 1.552zm-3.063 8.04c-.783.483-2.175 1.377-5.677 1.974l.673 3.943c4.13-.704 6.005-1.834 7.104-2.513l-2.1-3.404zm-5.678 1.975c-3.657.626-7.438.528-11.16-.138l-.705 3.937c4.112.736 8.364.859 12.54.143l-.675-3.942zm-11.156-.137a45.63 45.63 0 0 1-3.502-.767l-1.02 3.867a49.55 49.55 0 0 0 3.81.836l.712-3.936z" fill="#08C"/></svg>