<svg width="100" height="72" fill="none" xmlns="http://www.w3.org/2000/svg"><path d="M61.278 31.613c0 6.142-5.05 11.111-11.268 11.111-6.219 0-11.268-4.979-11.268-11.111 0-6.133 5.05-11.112 11.268-11.112 6.218 0 11.268 4.98 11.268 11.112zM71.865 69.995h-43.71c-.55 0-1-.444-1-.986V61.94c0-8.035 6.608-14.542 14.746-14.542h16.217c8.148 0 14.757 6.516 14.757 14.552v7.069c0 .532-.45.976-1.01.976z" stroke="#fff" stroke-width="3" stroke-miterlimit="10"/><path d="M86.412 13.107c0 6.142-5.049 11.111-11.267 11.111-6.23 0-11.268-4.979-11.268-11.111 0-6.133 5.039-11.112 11.268-11.112 6.218 0 11.267 4.98 11.267 11.112zM65.936 28.921c.36-.03.73-.04 1.09-.04h16.217C91.39 28.882 98 35.4 98 43.435v7.07c0 .541-.45.985-1 .985H74.305M36.133 13.107c0 6.142-5.049 11.111-11.268 11.111-6.218 0-11.277-4.969-11.277-11.111 0-6.143 5.049-11.112 11.278-11.112 6.228 0 11.267 4.98 11.267 11.112zM25.215 51.489H3c-.55 0-1-.444-1-.986v-7.07c0-8.035 6.609-14.542 14.747-14.542h16.217c.37 0 .73.01 1.09.04" stroke="#fff" stroke-width="3" stroke-miterlimit="10" stroke-linecap="round"/></svg>