<svg width="98" height="86" fill="none" xmlns="http://www.w3.org/2000/svg"><path d="M69.144 57.07c7.72-7.79 7.72-20.36 0-28.15m2.77 50.42c20.07-9.41 28.72-33.31 19.31-53.38a40.129 40.129 0 0 0-19.31-19.31m-4.18 9.1c15.05 7.13 21.46 25.11 14.33 40.16a30.123 30.123 0 0 1-14.33 14.33M2.694 52.28V33.72c0-6.95 5.63-12.58 12.58-12.58h14.5l17.29-16.68a5.29 5.29 0 0 1 9 3.81v69.46a5.292 5.292 0 0 1-5.25 5.33c-1.4.01-2.75-.54-3.75-1.52l-17.29-16.68h-14.5c-6.95 0-12.58-5.63-12.58-12.58z" stroke="#fff" stroke-width="4" stroke-miterlimit="10"/></svg>