<svg width="66" height="108" fill="none" xmlns="http://www.w3.org/2000/svg"><path d="M11.298 55.616v49.433L32.68 90.695l21.372 14.354V55.616" stroke="#fff" stroke-width="4" stroke-miterlimit="10" stroke-linecap="round" stroke-linejoin="round"/><path d="M32.68 64.09c16.883 0 30.57-13.686 30.57-30.57 0-16.883-13.687-30.57-30.57-30.57-16.883 0-30.57 13.688-30.57 30.57 0 16.884 13.687 30.57 30.57 30.57z" stroke="#fff" stroke-width="4" stroke-miterlimit="10" stroke-linecap="round" stroke-linejoin="round"/><path d="M35.179 12.595l4.445 9.006a2.79 2.79 0 0 0 2.105 1.531l9.931 1.446c2.286.33 3.2 3.148 1.553 4.764l-7.188 7.007a2.8 2.8 0 0 0-.808 2.467l1.7 9.9c.394 2.285-1.998 4.019-4.05 2.945l-8.89-4.668a2.797 2.797 0 0 0-2.594 0l-8.89 4.668c-2.051 1.074-4.444-.66-4.05-2.946l1.7-9.899a2.77 2.77 0 0 0-.807-2.467l-7.188-7.007c-1.659-1.616-.744-4.434 1.552-4.764l9.931-1.446a2.784 2.784 0 0 0 2.106-1.53l4.445-9.007c1.02-2.073 3.976-2.073 4.997 0z" stroke="#fff" stroke-width="4" stroke-miterlimit="10" stroke-linecap="round" stroke-linejoin="round"/></svg>