<svg width="105" height="112" fill="none" xmlns="http://www.w3.org/2000/svg"><path d="M102.75 16.13c0-4.724-3.849-8.57-8.574-8.57H83.149v6.029a3 3 0 0 1-2.991 2.99h-6.172a3 3 0 0 1-2.99-2.99v-6.03H34.514v6.03a3 3 0 0 1-2.991 2.99h-6.172a3 3 0 0 1-2.99-2.99v-6.03H11.323c-4.726 0-8.574 3.847-8.574 8.571v16.324h100V16.13zM2.75 100.929c0 4.724 3.848 8.571 8.574 8.571h82.842c4.726 0 8.574-3.847 8.574-8.571V38.444H2.75v62.485z" stroke="#fff" stroke-width="4" stroke-miterlimit="10"/><path d="M28.377.5v12.126M76.919.5v12.126" stroke="#fff" stroke-width="4"/><path d="M35.344 69.86l-6.076 6.02-6.13-6.396L36.85 56.047h9.356v35.85H35.344V69.86zM67.359 86.145h-17.26v-8.33l13.066-21.768H78.22v20.639h4.14v9.46h-4.14v5.75H67.36v-5.75zm-6.775-9.459h6.775V65.399l-6.775 11.287z" fill="#fff"/></svg>