<svg width="92" height="83" fill="none" xmlns="http://www.w3.org/2000/svg"><path d="M.755 47.331c.013-.407.212-.777.536-1.012l.005-.004 4.617-3.172-4.617-3.182-.001-.001a1.24 1.24 0 0 1-.54-1.023v-.007c.013-.407.212-.778.536-1.012l.005-.004 4.628-3.182-4.628-3.193a1.243 1.243 0 0 1-.314-.31l-.001-.002a1.248 1.248 0 0 1 .313-1.732l.002-.002 4.617-3.173-4.617-3.182a1.324 1.324 0 0 1-.324-.32l-.003-.004a1.238 1.238 0 0 1 .328-1.733H1.3L30.625.89l.064-.044h.088a.885.885 0 0 1 .194-.08l.018-.005.019-.003a1.08 1.08 0 0 1 .268-.002h19.715a.99.99 0 0 1 .268.004l.014.002.013.004c.073.02.148.054.213.09h.069l.064.044L90.704 27.81h.001a1.24 1.24 0 0 1 0 2.045l-.001.001-4.627 3.183 4.627 3.182c.125.087.237.197.324.321l.002.004c.388.569.253 1.344-.327 1.732l-.002.001-4.622 3.18 4.624 3.143.002.001a1.24 1.24 0 0 1 0 2.045l-89.95.684zm0 0v.008c0 .413.204.788.54 1.022L50.17 82.026a1.255 1.255 0 0 0 1.432 0h.001L90.704 55.12l.001-.001a1.24 1.24 0 0 0 0-2.045l-4.621-3.185M.755 47.331l85.329 2.557m0 0l4.621-3.241-4.621 3.241zm-65.029-16.19L16.17 30.34 4.212 22.115 31.34 3.483l9.057 6.23a1.255 1.255 0 0 0 1.432 0l9.058-6.23 36.902 25.35-4.618 3.182L50.887 54.24 21.055 33.7zm66.763 3.516l-4.617 3.172-32.314 22.276L8.8 33.7l-.001-.001-4.59-3.201 3.905-2.688L50.2 56.752h.001a1.255 1.255 0 0 0 1.432 0l32.273-22.225 3.912 2.687zm-36.931 42.27L4.21 47.34l3.903-2.696 42.088 28.953.007.004c.21.135.458.209.708.209.25 0 .497-.074.708-.21v.001l.007-.005L83.886 51.4l3.903 2.687-36.902 25.398zM41.113 7.122l-5.76-3.961h11.521l-5.76 3.961zm10.53 58.071l32.273-22.225 3.912 2.687-36.941 25.398L4.212 38.918l3.912-2.687L50.21 65.193h.001a1.255 1.255 0 0 0 1.431 0h.001z" fill="#fff" stroke="#fff" stroke-width=".5"/></svg>