<svg width="144" height="90" fill="none" xmlns="http://www.w3.org/2000/svg"><path d="M75.063 64.549l2.856 2.97c-3.048 3.498-7.4 5.41-11.884 5.206-7.36.306-13.954-4.8-15.948-12.326h-5.08v-2.665h4.716c0-.61-.096-1.26-.096-2.034 0-.773 0-1.322.096-1.932h-4.715v-2.644h5.08c1.974-7.526 8.586-12.632 15.947-12.327 4.485-.203 8.817 1.668 11.884 5.146l-2.856 2.97c-4.792-5.166-12.613-5.248-17.481-.163a13.36 13.36 0 0 0-2.78 4.374h14.089v2.766H54.189c-.096.63-.134 1.282-.134 1.932-.02.672.038 1.363.134 2.034h14.702V60.4H54.802c2.626 6.672 9.853 9.825 16.14 7.038a12.37 12.37 0 0 0 4.12-2.97v.082z" fill="#08C"/><path d="M121.012 88H3.917C2.863 88 2 87.086 2 85.968v-60.31c0-1.12.863-2.035 1.917-2.035h117.095c1.054 0 1.916.916 1.916 2.034v60.31c0 1.12-.862 2.035-1.916 2.035z" stroke="#08C" stroke-width="4" stroke-miterlimit="10"/><path d="M13.424 12.17h117.075c1.055 0 1.917.916 1.917 2.035v60.31" stroke="#08C" stroke-width="4" stroke-miterlimit="10" stroke-linecap="round"/><path d="M23.008 2h117.075c1.055 0 1.917.916 1.917 2.035v60.31" stroke="#08C" stroke-width="4" stroke-miterlimit="10" stroke-linecap="round"/><path d="M15.871 23.098V87.81" stroke="#08C" stroke-width="4"/></svg>