<svg width="100" height="90" fill="none" xmlns="http://www.w3.org/2000/svg"><path d="M49.9 88l-1.547 1.268a2 2 0 0 0 3.09.004L49.9 88zM2 29.587L.319 28.504a2 2 0 0 0 .134 2.351L2 29.587zM19.78 2V0a2 2 0 0 0-1.681.917L19.78 2zm61.01 0L82.487.942A2 2 0 0 0 80.79 0v2zM98 29.587l1.544 1.271a2 2 0 0 0 .153-2.33L98 29.587zM49.99 87.73l-1.878.69a2 2 0 0 0 3.768-.036l-1.89-.654zM28.62 29.586l-1.905.61a2 2 0 0 0 3.483.619l-1.578-1.229zM49.99 2.13L51.6.943A2 2 0 0 0 48.412.9L49.99 2.13zm20.16 27.337l-1.61 1.187a2 2 0 0 0 3.475-.465l-1.865-.722zM51.446 86.732L3.547 28.32.454 30.855l47.9 58.413 3.093-2.536zM3.681 30.671l17.78-27.587L18.1.917.319 28.504 3.68 30.67zM19.78 4h61.01V0H19.78v4zm59.313-.942l17.21 27.587 3.394-2.118L82.487.942l-3.394 2.117zm17.363 25.257l-48.1 58.413 3.088 2.543 48.1-58.414-3.088-2.542zM2.11 31.587h95.78v-4H2.11v4zm24.352-2.191l21.65 59.023 3.756-1.377-21.65-59.023-3.756 1.377zM51.88 88.384L72.3 29.361l-3.78-1.308L48.1 87.076l3.78 1.308zM17.875 2.611l8.84 27.586 3.81-1.22-8.84-27.587-3.81 1.22zm12.323 28.204l21.37-27.457L48.412.901l-21.37 27.457 3.156 2.457zM48.38 3.317l20.16 27.337 3.22-2.375L51.6.944l-3.22 2.374zm23.635 26.872l10.64-27.466-3.73-1.445-10.64 27.466 3.73 1.445z" fill="#08C"/></svg>