<svg width="138" height="101" fill="none" xmlns="http://www.w3.org/2000/svg">
	<path d="M30.613 68.912c2.565-3.564 6.438-6.165 10.914-7.049l1.1-9.234L32 45.27a1.336 1.336 0 0 1-.55-1.223l1.544-12.772-10.574-7.36a1.238 1.238 0 0 1-.55-1.223L23.416 9.92 13.391 3 3 7.63l27.613 61.282zM135 81.625l-10.443-6.243-11.097 6.607c-.419.26-.916.26-1.361 0l-11.097-6.607-11.098 6.607a1.24 1.24 0 0 1-1.335 0l-11.097-6.607-7.407 4.396c.34 1.379.55 2.783.55 4.266 0 3.251-.916 6.295-2.46 8.896h66.819L135 81.625zM47.978 99c8.297 0 15.024-6.71 15.024-14.955 0-8.246-6.753-14.93-15.024-14.93-8.27 0-15.023 6.71-15.023 14.93C32.955 92.29 39.708 99 47.978 99z" stroke="#08C" stroke-width="4" stroke-miterlimit="10"/>
</svg>