<svg width="127" height="114" fill="none" xmlns="http://www.w3.org/2000/svg"><path d="M20.727 78.728v-23.56h89.324v23.078M65.389 32.09v46.66" stroke="#fff" stroke-width="4" stroke-miterlimit="10"/><path d="M80.227 92.705c0 8.174-6.64 14.795-14.838 14.795S50.55 100.879 50.55 92.705c0-8.175 6.64-14.796 14.838-14.796s14.838 6.62 14.838 14.796zM80.227 2.5H50.55v29.59h29.676V2.5z" stroke="#fff" stroke-width="4" stroke-miterlimit="10"/><path d="M110.051 77.91l12.85 22.192h-25.7l12.85-22.193zM20.727 77.91l4.007 10.799 10.83 3.996-10.83 3.996-4.007 10.799-4.008-10.8-10.83-3.995 10.83-3.996 4.008-10.8z" stroke="#fff" stroke-width="4"/></svg>