<svg width="98" height="61" fill="none" xmlns="http://www.w3.org/2000/svg"><g clip-path="url(#clip0)"><path d="M15.524 36.095l-1.448-.388v.001l1.448.387zm7.222-26.968l1.449.388v-.003l-1.45-.385zm-2.807-4.362l-.24 1.48.001.001.239-1.48zM6.522 2.594l-.244 1.48h.004l.24-1.48zm74.043 37.524L82 39.68l-1.435.438zM72.318 13.15l-1.435.437v.002l1.435-.44zm3.204-4.362l.21 1.485-.21-1.485zm15.314-2.171l.21 1.485h.003l-.213-1.485zm-39.902.357l.531-1.403-.035-.013-.035-.011-.46 1.427zM31.787 24.636l-1.459.35v.001l1.459-.35zm12.313-1.72l-.547-1.397-.24.095-.195.169.982 1.133zm5.595-2.19l.977-1.138-.684-.587-.84.328.547 1.397zm23 19.73l-.977 1.139.028.024.03.022.919-1.184zm-4.172 8.357l.126-1.495-1.35-.113-.25 1.331 1.474.277zm-.3 1.598l1.472.286.002-.01-1.474-.276zm-1.404 2.05l.757 1.294-.757-1.295zm-6.592-.057l.445-1.433-1.479-.459-.412 1.492 1.446.4zm-.716 2.594l1.417.49.016-.044.013-.047-1.446-.399zm-7.444 2.284l.529-1.403-1.052-.397-.675.898 1.198.902zm-.475.63l1.196.906.003-.003-1.199-.903zm-3.088 1.626l-.068-1.498h-.003l.071 1.498zm-6.611-2.246l-.867 1.223.001.002.866-1.225zM.995 6.043v29.14h3V6.043h-3zm0 29.14c0 2.746 2.221 4.997 4.975 4.997v-3a1.99 1.99 0 0 1-1.975-1.997h-3zM5.97 40.18h6.196v-3H5.97v3zm6.196 0a4.986 4.986 0 0 0 4.808-3.698l-2.899-.774a1.986 1.986 0 0 1-1.91 1.472v3zm4.808-3.697l7.22-26.968-2.897-.776-7.221 26.968 2.898.776zm7.221-26.97c.757-2.847-1.085-5.756-4.018-6.229L19.7 6.246c1.152.186 1.904 1.337 1.596 2.495l2.9.771zm-4.017-6.229L6.762 1.113l-.48 2.961L19.7 6.246l.48-2.962zM6.766 1.114C3.727.613.996 2.98.996 6.044h3c0-1.243 1.1-2.165 2.282-1.97l.488-2.96zm87.177 8.953v29.14h3v-29.14h-3zm0 29.14c0 .927-.918 1.996-2.469 1.996v3c2.845 0 5.47-2.07 5.47-4.997h-3zm-2.469 1.996h-7.076v3h7.076v-3zm-7.076 0c-1.244 0-2.157-.733-2.398-1.523l-2.87.876c.689 2.256 2.931 3.647 5.268 3.647v-3zM82 39.68l-8.247-26.968-2.869.877 8.248 26.969 2.868-.878zm-8.246-26.966c-.284-.932.36-2.21 1.979-2.44l-.42-2.97c-3.028.429-5.365 3.212-4.43 6.284l2.87-.874zm1.98-2.44l15.313-2.171-.421-2.97-15.314 2.171.421 2.97zm15.316-2.171c1.736-.25 2.894.935 2.894 1.965h3c0-3.275-3.217-5.381-6.32-4.935l.426 2.97zm-68.177 4.132h16.834v-3H22.872v3zm56.394 25.337l-5.663 3.666 1.63 2.518 5.663-3.666-1.63-2.518zm-5.74-23.653L51.465 5.571l-1.062 2.806 22.061 8.347 1.062-2.806zM50.934 6.974c.461-1.427.46-1.428.46-1.428a.082.082 0 0 1-.004-.001l-.006-.002-.017-.005a4.59 4.59 0 0 0-.223-.064 9.848 9.848 0 0 0-.587-.137c-.49-.1-1.177-.204-1.983-.23-1.599-.052-3.771.203-5.78 1.54l1.663 2.497c1.312-.873 2.794-1.078 4.02-1.039.605.02 1.123.1 1.484.172a6.883 6.883 0 0 1 .518.126h-.002l-.002-.001c-.001 0-.002 0 .46-1.428zm-8.14-.328c-1.673 1.114-5.202 3.529-8.097 6.65-2.828 3.051-5.442 7.202-4.369 11.69l2.918-.698c-.699-2.92.947-6.035 3.65-8.952 2.638-2.844 5.914-5.096 7.56-6.192l-1.661-2.498zM30.33 24.987c.269 1.12.735 2.059 1.437 2.762.713.715 1.578 1.092 2.473 1.227 1.698.255 3.523-.358 5.016-1.067 1.546-.734 3.003-1.703 4.055-2.47a33.189 33.189 0 0 0 1.733-1.356l.027-.023.008-.007.003-.002c.001 0 .001-.001-.981-1.135l-.982-1.134-.004.003-.018.016a30.288 30.288 0 0 1-1.553 1.214c-.978.712-2.266 1.562-3.575 2.184-1.363.647-2.504.927-3.283.81-.343-.051-.593-.176-.796-.38-.215-.215-.468-.61-.644-1.343l-2.916.701zm14.318-.674l5.595-2.19-1.094-2.794-5.595 2.19 1.094 2.794zm4.071-2.448l23 19.73 1.954-2.277-23-19.73-1.954 2.277zm23.977 18.591l-.92 1.185h-.001v-.001h-.002l.003.002.021.016.098.081a10.053 10.053 0 0 1 1.453 1.515c.808 1.052 1.14 2 .917 2.716l2.864.892c.687-2.208-.482-4.239-1.402-5.436a13.063 13.063 0 0 0-2.089-2.137l-.014-.01-.005-.005-.002-.001c0-.001-.001-.001-.921 1.183zm1.569 5.514c-.066.21-.25.463-.75.715-.507.257-1.192.434-1.953.54-.745.104-1.48.128-2.036.125a15.156 15.156 0 0 1-.87-.031h-.008l-.124 1.494a272.497 272.497 0 0 0-.124 1.495h.008l.02.002a6.563 6.563 0 0 0 .292.018c.191.01.462.02.788.021.646.005 1.534-.022 2.468-.153.92-.127 1.97-.367 2.893-.834.931-.47 1.87-1.25 2.26-2.5l-2.864-.892zm-7.215 2.566l-.3 1.598 2.948.554.3-1.598-2.948-.554zm-.299 1.589c-.093.478-.352.844-.688 1.04l1.515 2.59c1.174-.687 1.882-1.845 2.118-3.058l-2.945-.572zm-.688 1.04c-.602.352-2.11.824-5.39-.194l-.89 2.865c3.748 1.163 6.208.846 7.794-.08l-1.514-2.59zm-7.28.84l-.717 2.594 2.892.798.716-2.594-2.892-.798zm.729 2.993c-1.418-.49-1.418-.491-1.417-.492v-.002l.002-.003.001-.005.002-.006-.002.006-.03.07a3.26 3.26 0 0 1-.974 1.209c-.662.498-1.97 1.056-4.497.104l-1.058 2.807c3.357 1.266 5.772.682 7.36-.516a6.26 6.26 0 0 0 1.9-2.36 4.644 4.644 0 0 0 .13-.32l-1.417-.492zm-8.643 1.382l-.474.63 2.397 1.805.474-.63-2.397-1.805zm-.471.627a2.624 2.624 0 0 1-1.961 1.033l.137 2.997a5.624 5.624 0 0 0 4.215-2.22l-2.391-1.81zm-1.964 1.033c-1.227.059-3.202-.226-5.674-1.973l-1.732 2.45c3.007 2.125 5.64 2.611 7.55 2.52l-.144-2.997zm-5.673-1.972c-2.53-1.793-8.86-7.105-14.63-12.033a1499.142 1499.142 0 0 1-10.596-9.143l-.171-.149-.044-.038a1.53 1.53 0 0 1-.014-.012l-.987 1.13-.986 1.13.004.003.01.01.045.038.172.15.656.571 2.382 2.068c1.993 1.726 4.706 4.066 7.58 6.523 5.72 4.885 12.176 10.308 14.845 12.2l1.734-2.448zm27.093-8.256l-12.342-10.51-1.945 2.285 12.342 10.509 1.945-2.284zm-8.499 3.685L49.448 41.355l-1.946 2.284L59.41 53.78l1.945-2.284zm-8.1 4.822L41.346 46.176 39.4 48.46l11.907 10.143 1.945-2.284z" fill="#fff"/></g><defs><clipPath id="clip0"><path fill="#fff" d="M0 0h98v61H0z"/></clipPath></defs></svg>