<svg width="84" height="80" fill="none" xmlns="http://www.w3.org/2000/svg"><path d="M4.485 39.93c0-19.849 16.065-35.94 35.883-35.94a35.677 35.677 0 0 1 21.777 7.374 1.988 1.988 0 0 0 2.79-.373c.668-.874.5-2.125-.373-2.794A39.653 39.653 0 0 0 40.368.003C18.352.003.505 17.88.505 39.93c0 22.05 17.846 39.937 39.863 39.937 22.015 0 39.862-17.876 39.862-39.927 0-6.47-1.539-12.587-4.263-17.991a1.989 1.989 0 0 0-2.674-.881 1.995 1.995 0 0 0-.88 2.677A35.888 35.888 0 0 1 76.25 39.94c0 19.85-16.065 35.94-35.882 35.94-19.817 0-35.883-16.1-35.883-35.95z" fill="#08C"/><path d="M82.788 4.741c.733-.82.663-2.08-.155-2.815a1.988 1.988 0 0 0-2.81.156l-40.493 45.3-17.582-19.32c-.74-.814-2-.872-2.812-.13a1.996 1.996 0 0 0-.13 2.816l19.066 20.95a1.989 1.989 0 0 0 2.953-.014L82.788 4.741z" fill="#08C"/></svg>