<svg xmlns="http://www.w3.org/2000/svg" width="56.313" height="51.812"><path data-name="Фигура 22" d="M45.269 3.951h-22.79a1.1 1.1 0 1 0 0 2.2h22.79a1.1 1.1 0 1 0 0-2.2zm-33.923.322a1.1 1.1 0 1 0 .321.776 1.11 1.11 0 0 0-.321-.776zm-4.036 0a1.1 1.1 0 1 0 .322.776 1.106 1.106 0 0 0-.322-.776zm8.071 0a1.1 1.1 0 1 0 .32.776 1.113 1.113 0 0 0-.32-.776zm40.61 41.445l-8.644-8.641 1.356-1.356 1.356-1.355 4.27 4.269a1.1 1.1 0 1 0 1.553-1.553l-5.047-5.045a1.1 1.1 0 0 0-1.553 0l-1.356 1.357-.658-.658A12.85 12.85 0 0 0 28.14 15.59H7.016a1.1 1.1 0 0 0-1.1 1.1v15.368a1.1 1.1 0 0 0 1.1 1.1h20.958a12.839 12.839 0 0 0 17.744 1.138l.657.657-1.357 1.357a1.1 1.1 0 0 0 0 1.552l4.6 4.6V47.2a2.418 2.418 0 0 1-2.416 2.414h-42.6A2.418 2.418 0 0 1 2.186 47.2V10.1h47.433v4.948a1.1 1.1 0 0 0 2.2 0V4.61A4.616 4.616 0 0 0 47.207 0h-42.6A4.616 4.616 0 0 0-.005 4.61V47.2a4.617 4.617 0 0 0 4.612 4.611h42.6a4.616 4.616 0 0 0 4.612-4.611v-2.552l2.624 2.623a1.1 1.1 0 0 0 1.551-1.553zM24.586 24.793l-1.384-2.672a1.1 1.1 0 0 0-1.95 1.009l2.578 4.979a1.094 1.094 0 0 0 1.436.49 12.792 12.792 0 0 0 1.081 2.355H8.114V17.782h18.342a12.771 12.771 0 0 0-1.875 6.677c0 .112.002.223.005.334zM37.44 35.118a10.674 10.674 0 0 1-10.663-10.659v-.25l2.019 3.9a1.1 1.1 0 0 0 .975.593h.023a1.1 1.1 0 0 0 .973-.622l2.392-4.979a1.1 1.1 0 1 0-1.979-.951l-1.439 3-1.567-3.025a1.1 1.1 0 0 0-.985-.592A10.662 10.662 0 1 1 37.44 35.118zM2.185 4.61a2.419 2.419 0 0 1 2.416-2.415h42.6a2.419 2.419 0 0 1 2.416 2.415V7.9H2.185V4.61zm17.878 17.026a1.1 1.1 0 0 0-1.465.514l-1.439 3-1.565-3.029a1.1 1.1 0 0 0-1.965.029l-1.439 3-1.566-3.025a1.1 1.1 0 0 0-1.95 1.009l2.578 4.979a1.1 1.1 0 0 0 1.965-.029l1.439-3 1.566 3.025a1.1 1.1 0 0 0 .975.593h.017a1.1 1.1 0 0 0 .973-.622l2.392-4.979a1.1 1.1 0 0 0-.516-1.465zm25.16 0a1.1 1.1 0 0 0-1.465.514l-1.439 3-1.566-3.025a1.1 1.1 0 0 0-1.965.029l-1.439 3-1.566-3.025a1.1 1.1 0 0 0-1.951 1.009l2.579 4.979a1.1 1.1 0 0 0 .974.593h.017a1.1 1.1 0 0 0 .973-.622l1.439-3 1.567 3.024a1.1 1.1 0 0 0 .975.593h.016a1.1 1.1 0 0 0 .973-.622l2.392-4.979a1.1 1.1 0 0 0-.514-1.468zM7.794 41.813a1.1 1.1 0 1 0 .321.776 1.1 1.1 0 0 0-.321-.776zm24.374-.32H10.786a1.1 1.1 0 1 0 0 2.195h21.381a1.1 1.1 0 1 0 0-2.195zm-4.069-5.27H21.62a1.1 1.1 0 0 0 0 2.2h6.474a1.1 1.1 0 0 0 0-2.2zm-11.409 0H7.017a1.1 1.1 0 0 0 0 2.2h9.677a1.1 1.1 0 0 0 0-2.2z" fill="#00fff6" fill-rule="evenodd"/></svg>