<svg width="114" height="104" fill="none" xmlns="http://www.w3.org/2000/svg"><path d="M74.735 56.364l1.71 1.035a2 2 0 0 0-.717-2.772l-.993 1.736zm-6.29 10.387l-.992 1.736a2 2 0 0 0 2.703-.7l-1.71-1.036zM2.962 29.31l-1.71-1.037a2 2 0 0 0 .717 2.773l.993-1.737zm6.29-10.388l.992-1.736a2 2 0 0 0-2.703.7l1.71 1.036zm-2.15 3.457a2 2 0 1 0-1.986 3.472l1.986-3.472zm63.495 40.912a2 2 0 0 0 1.985-3.473l-1.985 3.472zm3.88-6.51l1.517-1.303a2 2 0 0 0-3.227.267l1.71 1.036zm10.867 12.645l-.366 1.966a2 2 0 0 0 1.883-3.27l-1.517 1.304zM68.7 66.326l-1.71-1.036a2 2 0 0 0 1.344 3.002l.366-1.966zm35.599 27.396a2 2 0 0 0 0 4v-4zm6.233-69.033l1.252-1.56h-.002l-1.25 1.56zM92.907 10.565l-1.26 1.554.009.006 1.25-1.56zm-48.305 5.741a2 2 0 0 0 4 0h-4zm-3.02 44.553a2 2 0 0 0-4 0h4zm61.938-29.892l1.252-1.56h-.001l-1.251 1.56zM85.887 16.843l-1.26 1.554.01.007 1.25-1.561zM37.581 28.132a2 2 0 0 0 4 0h-4zm66.657 5.4a2 2 0 1 0 0-4v4zm-16.894-17.13a2 2 0 1 0-4 0h4zm-14.32 38.926l-6.29 10.387 3.421 2.072 6.29-10.388-3.422-2.071zm-3.587 9.687L3.955 27.575l-1.986 3.472 65.484 37.44 1.985-3.472zM4.673 30.346l6.29-10.387-3.422-2.072-6.29 10.387 3.422 2.072zm3.586-9.687L73.742 58.1l1.986-3.472-65.484-37.44-1.985 3.472zm-3.143 5.193l65.48 37.44 1.986-3.473L7.102 22.38l-1.986 3.472zm67.845 32.234L83.827 70.73l3.034-2.607L75.994 55.48l-3.033 2.607zm12.75 9.375l-16.645-3.102-.733 3.933 16.645 3.101.732-3.932zm-15.301-.1l5.779-9.543-3.422-2.072-5.779 9.544 3.422 2.072zm33.888 30.361h4.982v-4h-4.982v4zm4.982 0c2.134 0 3.969-1.703 3.969-3.914h-4c0-.02.005-.04.013-.058.006-.015.013-.022.015-.024.004-.004.007-.004.003-.004v4zm3.969-3.914V26.163h-4v67.645h4zm0-67.645c0-1.205-.56-2.306-1.466-3.033l-2.504 3.119c.001 0-.007-.005-.015-.022a.142.142 0 0 1-.015-.064h4zm-1.468-3.035L94.157 9.004l-2.501 3.121L109.28 26.25l2.501-3.122zM94.165 9.011a3.987 3.987 0 0 0-2.509-.886v4h.001a.032.032 0 0 1-.01-.006l2.518-3.108zm-2.509-.886H48.571v4h43.085v-4zm-43.085 0c-2.134 0-3.97 1.703-3.97 3.913h4a.15.15 0 0 1-.011.058.08.08 0 0 1-.016.025c-.004.004-.007.004-.003.004v-4zm-3.97 3.913v4.268h4v-4.268h-4zm-7.02 48.821v39.227h4V60.859h-4zm0 39.227c0 2.211 1.836 3.914 3.97 3.914v-4c-.004 0-.001 0 .003.004a.07.07 0 0 1 .015.024.152.152 0 0 1 .013.058h-4zm3.97 3.914h60.719v-4H41.55v4zm60.719 0c2.133 0 3.969-1.703 3.969-3.914h-4c0-.02.005-.041.012-.058a.064.064 0 0 1 .016-.024c.004-.004.007-.004.003-.004v4zm3.969-3.914V32.441h-4v67.645h4zm0-67.645c0-1.206-.56-2.306-1.467-3.034l-2.504 3.12c.001 0-.006-.005-.014-.022a.142.142 0 0 1-.015-.064h4zm-1.468-3.035L87.137 15.282l-2.5 3.122 17.633 14.124 2.501-3.122zM87.145 15.29a3.986 3.986 0 0 0-2.509-.886v4c.001 0 .002 0 0 0a.032.032 0 0 1-.008-.006l2.517-3.108zm-2.509-.886H41.551v4h43.085v-4zm-43.085 0c-2.134 0-3.97 1.703-3.97 3.913h4a.15.15 0 0 1-.012.058.078.078 0 0 1-.015.025c-.004.004-.007.004-.003.004v-4zm-3.97 3.913v9.816h4v-9.816h-4zm66.658 11.216H87.314v4h16.925v-4zm-16.925 0c-.003 0 0 0 .004.003.002.003.009.01.015.025a.15.15 0 0 1 .012.058h-4c0 2.21 1.836 3.914 3.97 3.914v-4zm.031.086V16.403h-4v13.215h4z" fill="#fff"/></svg>