<svg width="80" height="100" fill="none" xmlns="http://www.w3.org/2000/svg"><path d="M39.494 90.364c-2.471-.138-4.96-.604-7.432-1.38-15.843-5.094-24.597-22.17-19.55-38.14a30.3 30.3 0 0 1 3.227-7.01M41.623 31.04l-1.15 27.85 24.854 18.663M41.623 30.92c2.471.138 4.96.604 7.432 1.38 15.843 5.077 24.614 22.152 19.567 38.14a30.296 30.296 0 0 1-3.227 7.01M40.473 14.81v7.563m0-7.562c3.501 0 6.35-2.866 6.35-6.406 0-3.539-2.849-6.405-6.35-6.405-3.502 0-6.351 2.866-6.351 6.405 0 3.54 2.85 6.406 6.35 6.406zm-26.52 72.118c-14.64-14.762-14.64-38.71 0-53.471 14.642-14.762 38.397-14.762 53.039 0 14.641 14.761 14.641 38.709 0 53.47-14.642 14.762-38.397 14.762-53.038 0z" stroke="#fff" stroke-width="4" stroke-miterlimit="10" stroke-linecap="round" stroke-linejoin="round"/></svg>