<svg width="132" height="78" fill="none" xmlns="http://www.w3.org/2000/svg"><path d="M37.735 2h30.227m58.519 47.457c-8.244 18.514-28.35 28.787-44.915 22.945-16.545-5.843-23.28-25.576-15.036-44.072C74.793 9.817 94.9-.456 111.445 5.367c16.545 5.843 23.28 25.576 15.036 44.09zm-6.986-1.819c-6.347 14.259-21.828 22.171-34.58 17.683-12.754-4.489-17.94-19.695-11.573-33.934 6.347-14.258 21.828-22.17 34.581-17.663 12.733 4.469 17.919 19.675 11.572 33.914zm-17.049-8.203c0 2.999-2.593 5.437-5.766 5.437-3.193 0-5.767-2.438-5.767-5.437 0-2.998 2.593-5.436 5.767-5.436 3.173 0 5.766 2.438 5.766 5.436zm-25.427-1.644h8.94-8.94zm21.17-3.83l6.657-15.149-6.657 15.148zM37.735 76h30.227-30.227zM13.546 58.82h41.122-41.122zM0 39.474h50.797H0zm12.095-18.863h42.573-42.573z" stroke="#08C" stroke-width="4" stroke-miterlimit="10"/></svg>