<svg width="127" height="70" fill="none" xmlns="http://www.w3.org/2000/svg"><path d="M47.063 28v2.744h-6.717v3.024h6.385v2.744h-6.385V42H37.11V28h9.952zM61.561 32.647c0 2.243-.92 3.692-2.757 4.346L62.474 42h-3.981l-3.214-4.466H53.04V42h-3.234V28H55.3c2.253 0 3.856.367 4.81 1.102.967.734 1.451 1.916 1.451 3.545zm-6.157 2.183c1.105 0 1.858-.174 2.26-.521.4-.347.6-.895.6-1.642 0-.761-.207-1.282-.621-1.563-.415-.28-1.14-.42-2.177-.42H53.04v4.146h2.364zM75.318 28v2.784h-7.215v2.884h6.49v2.664h-6.49v2.904h7.443V42H64.87V28h10.45zM88.883 28v2.784h-7.215v2.884h6.49v2.664h-6.49v2.904h7.443V42H78.434V28h10.45z" fill="#fff"/><path fill-rule="evenodd" clip-rule="evenodd" d="M4.111.973a4 4 0 0 0-4 4v60.054a4 4 0 0 0 4 4h118.001a4 4 0 0 0 4-4V4.973a4 4 0 0 0-4-4h-118zm0 4h118.001v60.054h-118V4.973zm18.228 29.71c0-1.543 1.275-2.84 2.905-2.84s2.905 1.297 2.905 2.84c0 1.542-1.274 2.838-2.905 2.838-1.63 0-2.905-1.296-2.905-2.839zm2.905-6.84c-3.787 0-6.905 3.037-6.905 6.84 0 3.802 3.118 6.838 6.905 6.838 3.788 0 6.906-3.036 6.906-6.839 0-3.802-3.118-6.838-6.906-6.838zm74.203 4c-1.63 0-2.905 1.297-2.905 2.84 0 1.542 1.275 2.838 2.905 2.838s2.905-1.296 2.905-2.839c0-1.542-1.275-2.838-2.905-2.838zm-6.905 2.84c0-3.803 3.117-6.84 6.905-6.84 3.788 0 6.905 3.037 6.905 6.84 0 3.802-3.117 6.838-6.905 6.838-3.788 0-6.905-3.036-6.905-6.839zM19.783 10.29h-1.732l-.247 1.715c-.263 1.822-.865 3.11-1.696 3.976-.814.85-2.01 1.467-3.799 1.665l-1.78.198v33.403l1.723.242c1.929.27 3.182.805 3.99 1.529.765.687 1.341 1.734 1.536 3.504l.195 1.781h88.355l.247-1.714c.243-1.682.897-2.756 1.791-3.483.938-.762 2.325-1.293 4.26-1.507l1.779-.198V17.998l-1.722-.242c-1.804-.253-3.103-.896-3.989-1.78-.88-.879-1.499-2.141-1.693-3.905l-.196-1.78H19.783zm-.787 8.458c1.179-1.23 1.957-2.753 2.417-4.458h81.935c.455 1.756 1.29 3.288 2.52 4.516 1.234 1.232 2.78 2.073 4.537 2.558v26.55c-1.706.377-3.268 1.036-4.562 2.088-1.356 1.103-2.309 2.548-2.847 4.301H21.43c-.447-1.707-1.268-3.142-2.519-4.264-1.216-1.09-2.717-1.772-4.381-2.183V21.298c1.764-.46 3.273-1.303 4.467-2.55z" fill="#fff"/></svg>